<svg width="24" height="22" viewBox="0 0 24 22" fill="none" xmlns="http://www.w3.org/2000/svg">
<g id="&#240;&#159;&#147;&#141; Icon" clip-path="url(#clip0_9272_62)">
<path id="Vector" d="M15.55 11.9167C16.3 11.9167 16.96 11.5408 17.3 10.9725L20.88 5.02334C21.25 4.41834 20.77 3.66668 20.01 3.66668H5.21L4.27 1.83334H1V3.66668H3L6.6 10.6242L5.25 12.8608C4.52 14.0892 5.48 15.5833 7 15.5833H19V13.75H7L8.1 11.9167H15.55ZM6.16 5.50001H18.31L15.55 10.0833H8.53L6.16 5.50001ZM7 16.5C5.9 16.5 5.01 17.325 5.01 18.3333C5.01 19.3417 5.9 20.1667 7 20.1667C8.1 20.1667 9 19.3417 9 18.3333C9 17.325 8.1 16.5 7 16.5ZM17 16.5C15.9 16.5 15.01 17.325 15.01 18.3333C15.01 19.3417 15.9 20.1667 17 20.1667C18.1 20.1667 19 19.3417 19 18.3333C19 17.325 18.1 16.5 17 16.5Z" fill="#464645"/>
</g>
<defs>
<clipPath id="clip0_9272_62">
<rect width="24" height="22" fill="white"/>
</clipPath>
</defs>
</svg>
