<svg width="70" height="60" viewBox="0 0 70 60" fill="none" xmlns="http://www.w3.org/2000/svg">
<circle cx="30" cy="30" r="30" fill="#F0DCED"/>
<path d="M34.8203 14.6982H50.0346" stroke="#464645" stroke-width="2" stroke-miterlimit="10" stroke-linecap="round" stroke-linejoin="round"/>
<path d="M34.8203 21.9858H50.0346" stroke="#464645" stroke-width="2" stroke-miterlimit="10" stroke-linecap="round" stroke-linejoin="round"/>
<path d="M52 53L69 53" stroke="#464645" stroke-width="2" stroke-miterlimit="10" stroke-linecap="round" stroke-linejoin="round"/>
<path d="M38 47L38 30" stroke="#464645" stroke-width="2" stroke-miterlimit="10" stroke-linecap="round" stroke-linejoin="round"/>
<path d="M69 53L69 36" stroke="#464645" stroke-width="2" stroke-miterlimit="10" stroke-linecap="round" stroke-linejoin="round"/>
<path d="M30.9797 7.00664V14.1949C30.9797 15.1843 30.1776 15.9863 29.1882 15.9863H22" stroke="#464645" stroke-width="2" stroke-miterlimit="10" stroke-linecap="round" stroke-linejoin="round"/>
<path d="M38 30H68" stroke="#464645" stroke-width="2" stroke-miterlimit="10" stroke-linecap="round" stroke-linejoin="round"/>
<path d="M58.0078 29.9761V8.7998C58.0078 7.25356 56.7534 6 55.206 6H31.1271C30.384 6 29.6713 6.29503 29.1459 6.8201L21.8284 14.1323C21.303 14.6573 21.0078 15.3695 21.0078 16.112V50.2002C21.0078 51.7464 22.2622 53 23.8096 53H47.3041" stroke="#464645" stroke-width="2" stroke-miterlimit="10" stroke-linecap="round" stroke-linejoin="round"/>
<path d="M46 35L46 46.2857" stroke="#464645" stroke-width="2" stroke-linecap="round"/>
<path d="M53.6406 41.6431L51.6406 41.6431" stroke="#464645" stroke-width="2" stroke-linecap="round"/>
<path d="M59.0909 35H62.9091C63.5116 35 64 35.4884 64 36.0909V39.9091C64 40.5116 63.5116 41 62.9091 41H60.7143H59.0909C58.4884 41 58 40.5116 58 39.9091V36.0909C58 35.4884 58.4884 35 59.0909 35Z" stroke="#464645" stroke-width="2" stroke-linecap="round"/>
<path d="M58.5469 47.2725C58.5469 47.2725 60.5996 47.4116 61.8196 46.4544C63.5163 45.1231 64.0014 40.1816 64.0014 40.1816" stroke="#464645" stroke-width="2" stroke-linecap="round"/>
</svg>
