<svg width="150" height="24" viewBox="0 0 150 24" fill="none" xmlns="http://www.w3.org/2000/svg">
<path d="M1.02147 19.0308C0.93695 18.7522 1.09201 18.4569 1.36839 18.3716C1.64515 18.2859 1.93774 18.4427 2.0227 18.7213C2.05728 18.8347 2.08138 18.9125 2.09452 18.9526C2.10242 18.977 2.12826 19.0537 2.17202 19.181C2.26667 19.4564 2.12169 19.7571 1.84793 19.8525C1.57467 19.9479 1.27641 19.8017 1.18177 19.5262C1.17084 19.4948 1.14412 19.4127 1.10031 19.2781C1.06177 19.1593 1.0355 19.0772 1.02147 19.0308ZM5.10689 5.37124C5.38678 5.29794 5.67234 5.46711 5.74505 5.74923C5.81821 6.03149 5.65002 6.31973 5.37058 6.39304C5.01407 6.4875 4.67378 6.63194 4.36017 6.82266C4.05054 7.01032 3.76542 7.24387 3.51489 7.51937C3.32002 7.73355 2.9893 7.74731 2.77734 7.55073C2.56493 7.35389 2.5509 7.0209 2.74622 6.80673C3.06418 6.45665 3.42774 6.15948 3.82233 5.91968C4.22527 5.67504 4.65842 5.49056 5.10689 5.37124ZM13.1806 3.83389C13.3759 4.04883 13.361 4.38272 13.1477 4.57917C12.9344 4.77575 12.6033 4.76109 12.4079 4.54564C12.0813 4.18626 11.7238 3.85505 11.3384 3.55878C10.9596 3.26786 10.5479 3.00511 10.1047 2.77589C9.83093 2.63374 9.55149 2.50881 9.26771 2.39968C8.97689 2.28762 8.68694 2.19443 8.3996 2.11985C8.1202 2.04693 7.95246 1.75957 8.02473 1.47821C8.09699 1.1966 8.38211 1.02743 8.66111 1.10022C8.99438 1.18729 9.32115 1.29145 9.63995 1.41422C9.95664 1.53558 10.2711 1.67697 10.5816 1.83811C11.0761 2.09372 11.5399 2.3905 11.9713 2.72209C12.415 3.06299 12.8188 3.43563 13.1806 3.83389ZM18.8542 8.712C18.8199 8.42273 19.0254 8.16049 19.3122 8.12607C19.5991 8.09203 19.8592 8.2992 19.8934 8.58834C20.0043 9.56411 20.0121 10.5567 19.911 11.5489C19.8119 12.5199 19.6092 13.4886 19.2978 14.4384C19.2071 14.7152 18.9114 14.8657 18.6369 14.7743C18.3622 14.6834 18.2134 14.385 18.3036 14.1084C18.5918 13.2289 18.7792 12.3353 18.8703 11.4416C18.9635 10.528 18.9562 9.61268 18.8542 8.712ZM14.9224 21.85C15.2111 21.8563 15.4401 22.0968 15.4339 22.3883C15.4278 22.6793 15.1891 22.9102 14.9 22.9041C14.8054 22.9018 14.7117 22.8978 14.6202 22.8925C14.5229 22.8872 14.4297 22.8802 14.3417 22.8718C14.0539 22.8462 13.8414 22.5897 13.8674 22.2995C13.8932 22.0095 14.1472 21.7953 14.4349 21.8213C14.5213 21.8292 14.6031 21.8355 14.6797 21.8399C14.762 21.8448 14.8431 21.8482 14.9224 21.85ZM3.5994 14.6666C3.60029 14.9577 3.36684 15.1939 3.07822 15.1947C2.78958 15.1956 2.5553 14.9602 2.55441 14.6693C2.55396 14.007 2.60435 13.3451 2.70769 12.6898C2.8093 12.0452 2.96302 11.3996 3.17063 10.7594C3.25954 10.4825 3.5543 10.3316 3.8289 10.4217C4.1031 10.5117 4.25287 10.8089 4.16396 11.0853C3.97606 11.6651 3.83546 12.2562 3.74176 12.8527C3.64583 13.4608 3.59895 14.067 3.5994 14.6666ZM4.72635 19.6674C4.85117 19.9307 4.74037 20.2455 4.4793 20.3709C4.2183 20.4968 3.906 20.3851 3.78163 20.1218C3.54818 19.6291 3.34495 19.1156 3.17369 18.5861C3.00505 18.0643 2.86976 17.5295 2.76859 16.9856C2.71604 16.6995 2.90305 16.4249 3.18639 16.3715C3.47023 16.3184 3.74265 16.507 3.79566 16.7927C3.88758 17.288 4.01196 17.779 4.16791 18.2612C4.32118 18.7358 4.50776 19.2057 4.72635 19.6674ZM14.4064 8.5209C14.3504 8.23558 14.5343 7.95881 14.8173 7.90221C15.1002 7.84573 15.3752 8.0311 15.4314 8.31641C15.6328 9.33323 15.6682 10.3872 15.5228 11.4346C15.3827 12.4453 15.0748 13.4493 14.5865 14.4074C14.5147 14.5491 14.5058 14.7064 14.5506 14.8464C14.5947 14.9858 14.6925 15.1082 14.8322 15.1806C14.9727 15.2534 15.1291 15.2618 15.2675 15.2172C15.406 15.1722 15.5272 15.0741 15.599 14.9329C15.7804 14.5778 15.9398 14.2149 16.0782 13.8471C16.2175 13.4771 16.3349 13.1018 16.4308 12.7226C16.5017 12.4403 16.7865 12.2695 17.0663 12.341C17.3465 12.4125 17.5161 12.6996 17.4452 12.9817C17.34 13.3972 17.2104 13.8114 17.0558 14.2224C16.9051 14.6229 16.7299 15.0208 16.5293 15.4137C16.3257 15.8133 15.9801 16.0924 15.5864 16.22C15.1926 16.3471 14.7515 16.3232 14.3556 16.1184C13.9588 15.9132 13.6825 15.5647 13.5559 15.1674C13.4293 14.7709 13.453 14.3257 13.6562 13.9265C14.0903 13.0753 14.3636 12.1843 14.4879 11.2884C14.6171 10.3585 14.5856 9.42286 14.4064 8.5209ZM13.5923 6.23406C13.456 5.97667 13.5529 5.65655 13.8082 5.51925C14.0635 5.38233 14.381 5.47948 14.5168 5.73687C14.5313 5.7639 14.5654 5.83133 14.6193 5.93919C14.6614 6.02345 14.6943 6.09102 14.7188 6.14316C14.8418 6.40629 14.7302 6.72067 14.469 6.84472C14.208 6.96927 13.8962 6.8567 13.7728 6.59357C13.7369 6.51619 13.7074 6.45576 13.686 6.41241C13.6759 6.39253 13.6448 6.33337 13.5923 6.23406ZM22.0299 12.2386C21.9922 12.5274 21.7299 12.7308 21.443 12.693C21.1565 12.6554 20.9546 12.3905 20.9923 12.1017C21.0102 11.9635 21.023 11.8628 21.03 11.7984C21.0374 11.7312 21.0475 11.6298 21.0598 11.495C21.0856 11.205 21.3397 10.9908 21.6273 11.0168C21.9152 11.0429 22.1275 11.2994 22.1017 11.5895C22.0951 11.6642 22.0837 11.7723 22.0679 11.9146C22.0522 12.0594 22.0395 12.1675 22.0299 12.2386ZM17.1915 20.3206C16.9204 20.422 16.6187 20.2835 16.5175 20.0102C16.4167 19.7368 16.5543 19.4326 16.8254 19.3307C17.1289 19.2163 17.4175 19.0745 17.6868 18.9077C17.9567 18.7399 18.2125 18.5447 18.4494 18.3239C18.6614 18.126 18.9921 18.1393 19.1879 18.3531C19.3836 18.5667 19.3709 18.9005 19.1585 19.098C18.8729 19.3646 18.5633 19.6004 18.2357 19.804C17.9002 20.0123 17.5503 20.1851 17.1915 20.3206ZM9.58216 12.3195C9.69474 12.051 10.0017 11.9255 10.2676 12.0395C10.5339 12.153 10.6578 12.4625 10.5453 12.7305C10.116 13.7505 10.0503 14.8459 10.2983 15.8597C10.5483 16.8844 11.1194 17.8249 11.9581 18.5178C12.182 18.7019 12.2157 19.0344 12.0331 19.26C11.85 19.4855 11.5206 19.5192 11.2968 19.335C10.2786 18.4939 9.58567 17.3524 9.28212 16.1091C8.98214 14.8821 9.06186 13.5548 9.58216 12.3195Z" fill="#293982"/>
<path d="M6.30556 21.8958C6.49174 22.1183 6.46368 22.4508 6.24293 22.6384C6.02178 22.8261 5.69196 22.7974 5.50627 22.5749C5.4016 22.4495 5.30132 22.3249 5.20584 22.2018C5.11692 22.0865 5.02188 21.9581 4.92112 21.8168C4.75297 21.5805 4.80726 21.2517 5.04159 21.0824C5.27588 20.9129 5.6022 20.9677 5.7704 21.2039C5.84656 21.3112 5.9342 21.4286 6.0323 21.5553C6.12339 21.6732 6.21448 21.7867 6.30556 21.8958Z" fill="#2AB7EB"/>
<path d="M17.7817 10.8202C17.7664 11.1102 17.5202 11.3332 17.2325 11.3178C16.9443 11.3023 16.7231 11.0541 16.7384 10.7636C16.8182 9.24255 16.5646 7.72751 16.0114 6.32568C15.464 4.93749 14.6222 3.66327 13.5197 2.60706C13.3105 2.40665 13.3016 2.07238 13.5009 1.86088C13.7002 1.64977 14.0314 1.64097 14.2412 1.84189C15.4557 3.00532 16.3823 4.40894 16.9855 5.9371C17.592 7.47458 17.8697 9.14145 17.7817 10.8202Z" fill="#2AB7EB"/>
<path d="M13.0599 20.4494C12.7888 20.3509 12.6482 20.0489 12.7459 19.7755C12.844 19.5018 13.1431 19.3601 13.4146 19.459C13.656 19.5474 13.8999 19.6153 14.1444 19.6635C14.3917 19.7124 14.6422 19.7416 14.8941 19.7517C15.1827 19.7624 15.4074 20.007 15.3969 20.298C15.3864 20.5885 15.1438 20.8154 14.8552 20.8049C14.553 20.7929 14.2481 20.7572 13.9433 20.6966C13.6455 20.638 13.3502 20.5554 13.0599 20.4494Z" fill="#2AB7EB"/>
<path d="M4.87385 9.57444C4.74201 9.83362 4.42711 9.93599 4.17005 9.80315C3.91338 9.67069 3.81177 9.35274 3.9436 9.09407C4.2848 8.42375 4.86422 7.95665 5.52427 7.74285C6.18386 7.52919 6.92402 7.56896 7.58802 7.91292C8.25285 8.25726 8.7162 8.8414 8.92865 9.50687C9.14017 10.1718 9.10075 10.918 8.75956 11.5874C8.55329 11.9923 8.38775 12.4112 8.26204 12.8392C8.13282 13.2794 8.04785 13.72 8.00493 14.1554C7.97648 14.4446 7.7207 14.6561 7.43379 14.6278C7.14651 14.5991 6.93672 14.3417 6.96517 14.0521C7.01555 13.5404 7.11233 13.0343 7.2573 12.5406C7.39922 12.0576 7.58886 11.5777 7.82932 11.1066C8.03911 10.6947 8.06361 10.2358 7.93355 9.82788C7.80393 9.42031 7.5192 9.0622 7.11148 8.85121C6.70238 8.6392 6.24733 8.61447 5.84267 8.74565C5.4384 8.87633 5.0832 9.1633 4.87385 9.57444Z" fill="#2AB7EB"/>
<path d="M12.6027 0.283845C12.845 0.442309 12.9136 0.769054 12.7564 1.01332C12.5987 1.25694 12.2751 1.32629 12.0329 1.16783C11.993 1.14169 11.9445 1.11033 11.8853 1.07285C11.8502 1.0508 11.7994 1.01982 11.735 0.980552C11.4876 0.82961 11.4079 0.505032 11.5572 0.255543C11.7071 0.00605428 12.0289 -0.0742619 12.2764 0.0766808C12.3171 0.101413 12.3719 0.135452 12.4407 0.17918C12.4853 0.207354 12.5401 0.242794 12.6027 0.283845Z" fill="#3C6BBD"/>
<path d="M11.373 15.2385C11.3156 14.9537 11.4982 14.6756 11.7812 14.6182C12.0637 14.5603 12.3391 14.7449 12.3965 15.0297C12.4788 15.4355 12.6505 15.8211 12.9014 16.1544C13.1415 16.474 13.4565 16.7461 13.8361 16.9429C14.5132 17.2935 15.2665 17.3345 15.938 17.1173C16.6081 16.9001 17.1968 16.4251 17.544 15.7433C17.6759 15.4841 17.9908 15.3816 18.2479 15.5146C18.5045 15.647 18.6061 15.965 18.4742 16.2236C17.9951 17.1646 17.1822 17.8203 16.2563 18.1201C15.3305 18.42 14.2916 18.3639 13.3592 17.8808C12.8371 17.6102 12.4027 17.2334 12.0688 16.7893C11.7229 16.3297 11.4864 15.7981 11.373 15.2385Z" fill="#3C6BBD"/>
<path d="M0.987996 7.16878C0.856153 7.42744 0.541239 7.52981 0.284128 7.39736C0.0275173 7.26452 -0.0740927 6.94708 0.0577479 6.6879C0.129571 6.54703 0.207521 6.40616 0.291147 6.26579C0.376555 6.12263 0.463291 5.98711 0.551318 5.86001C0.716849 5.62148 1.04273 5.56322 1.27924 5.72972C1.51619 5.89622 1.57398 6.22513 1.40846 6.46353C1.32873 6.57877 1.25473 6.69364 1.18681 6.80748C1.11894 6.92145 1.05235 7.04193 0.987996 7.16878Z" fill="#3C6BBD"/>
<path d="M0.48528 12.6198C0.520751 12.3315 0.781365 12.1267 1.06733 12.162C1.35334 12.1977 1.557 12.4604 1.52154 12.7488C1.44709 13.3435 1.41201 13.9397 1.41509 14.5331C1.41774 15.13 1.45979 15.727 1.53991 16.3195C1.57933 16.6074 1.37917 16.8736 1.09321 16.9134C0.8072 16.9531 0.543526 16.7514 0.504097 16.463C0.418701 15.8299 0.374037 15.1874 0.370534 14.5401C0.367474 13.9017 0.405107 13.2605 0.48528 12.6198Z" fill="#3C6BBD"/>
<path d="M12.6366 21.214C12.9073 21.3151 13.0453 21.6185 12.945 21.891C12.8447 22.1638 12.5438 22.3028 12.2731 22.2018C12.1133 22.1426 11.9595 22.0798 11.8123 22.0146C11.6656 21.9496 11.5159 21.8777 11.3626 21.7981C10.3175 21.2568 9.43768 20.5203 8.7439 19.6553C8.02345 18.7574 7.50355 17.7205 7.20835 16.6211C7.17989 16.5148 7.14967 16.388 7.11726 16.2414C7.09054 16.1183 7.06603 15.991 7.04371 15.8608C6.99422 15.5743 7.18469 15.3014 7.46853 15.2519C7.75275 15.202 8.023 15.3936 8.0725 15.6802C8.09133 15.7897 8.11326 15.9018 8.13821 16.0162C8.15835 16.1076 8.18547 16.2185 8.2201 16.3474C8.4776 17.3068 8.93092 18.2111 9.559 18.9944C10.1634 19.7477 10.9299 20.3893 11.8391 20.8604C11.9652 20.9258 12.097 20.9889 12.2342 21.0493C12.3725 21.1107 12.507 21.1659 12.6366 21.214Z" fill="#3C6BBD"/>
<path d="M9.59196 4.81962C9.34843 4.66332 9.27577 4.33747 9.43083 4.09155C9.5854 3.84563 9.90865 3.77271 10.1526 3.92901C11.6868 4.91154 12.734 6.41408 13.1829 8.0844C13.627 9.73839 13.4839 11.5593 12.6451 13.2059C12.5133 13.4645 12.1983 13.5671 11.9412 13.434C11.6846 13.3016 11.583 12.9838 11.7144 12.725C12.4292 11.3232 12.5501 9.77065 12.1713 8.35811C11.7888 6.93461 10.8971 5.65554 9.59196 4.81962Z" fill="#3C6BBD"/>
<path d="M2.9468 5.31559C2.70811 5.47992 2.38225 5.41809 2.21933 5.17702C2.05637 4.93632 2.11773 4.60792 2.35685 4.44359C3.18416 3.87437 4.1232 3.48987 5.10599 3.3119C6.07482 3.13661 7.08389 3.16313 8.06848 3.41211C8.34836 3.48286 8.51828 3.76856 8.44863 4.05055C8.37853 4.33281 8.0952 4.50453 7.81531 4.43429C6.97572 4.2219 6.11685 4.19895 5.293 4.34772C4.45691 4.49879 3.65545 4.82771 2.9468 5.31559Z" fill="#EF7D15"/>
<path d="M17.0758 3.69842C16.9251 3.44983 17.0035 3.12487 17.2501 2.97303C17.4972 2.82107 17.8195 2.89973 17.9701 3.14871C18.2745 3.64985 18.5492 4.17802 18.7931 4.7294C19.0362 5.27822 19.242 5.83725 19.4093 6.4029C19.4922 6.68196 19.3345 6.97595 19.0577 7.05894C18.7808 7.14244 18.4896 6.98347 18.4073 6.7044C18.2496 6.17241 18.0595 5.65494 17.8387 5.15596C17.6211 4.66362 17.3662 4.17662 17.0758 3.69842Z" fill="#EF7D15"/>
<path d="M1.60757 8.9083C1.72405 8.64147 2.03283 8.52061 2.29735 8.63803C2.56147 8.75544 2.68146 9.06676 2.56498 9.33346C2.46599 9.56128 2.37095 9.797 2.2807 10.0399C2.18961 10.2854 2.10772 10.5252 2.03545 10.7582C1.9496 11.0364 1.65662 11.1918 1.38068 11.1058C1.10476 11.0197 0.950595 10.7242 1.036 10.446C1.11924 10.1786 1.20725 9.91977 1.30007 9.66939C1.39294 9.42002 1.49544 9.16607 1.60757 8.9083Z" fill="#EF7D15"/>
<path d="M6.64851 1.00037C6.93759 1.00878 7.16536 1.25164 7.157 1.54307C7.14871 1.83489 6.9078 2.06398 6.61829 2.05608C6.5605 2.05391 6.50487 2.05302 6.45276 2.05212C6.40192 2.05174 6.34719 2.05174 6.28807 2.05212C5.99899 2.05518 5.76165 1.82163 5.75858 1.52982C5.75547 1.23838 5.9872 0.999092 6.27665 0.995905C6.33405 0.995523 6.39624 0.995523 6.46195 0.996416C6.5272 0.997308 6.58939 0.998584 6.64851 1.00037Z" fill="#EF7D15"/>
<path d="M20.5324 17.3852C20.4045 17.6458 20.0914 17.7526 19.833 17.6237C19.5741 17.4947 19.4686 17.1791 19.5964 16.9181C19.7966 16.5097 19.9767 16.0951 20.1369 15.676C20.2972 15.257 20.4386 14.83 20.5609 14.396C20.6393 14.1161 20.9284 13.9527 21.2059 14.0313C21.4841 14.1104 21.6461 14.4018 21.5677 14.6818C21.439 15.1386 21.2866 15.5975 21.111 16.0562C20.9401 16.5027 20.7474 16.9464 20.5324 17.3852Z" fill="#EF7D15"/>
<path d="M7.05686 6.52174C6.77352 6.4682 6.5865 6.19271 6.63946 5.90701C6.69246 5.62093 6.96533 5.43238 7.24916 5.4858C7.47994 5.52953 7.70856 5.59008 7.93415 5.66772C8.15402 5.74408 8.37166 5.83728 8.5854 5.94819C9.46003 6.40076 10.1415 7.08294 10.5957 7.88342C11.0639 8.70952 11.2899 9.66235 11.2352 10.6205C11.2185 10.9111 10.9715 11.1331 10.6829 11.1168C10.3947 11.1 10.1744 10.851 10.191 10.56C10.2339 9.80539 10.0565 9.05616 9.68823 8.40662C9.33169 7.77748 8.79608 7.24178 8.10887 6.88597C7.94028 6.79852 7.76768 6.72483 7.59297 6.66427C7.41559 6.60295 7.23642 6.55527 7.05686 6.52174Z" fill="#EF7D15"/>
<path d="M5.88723 10.094C6.01863 9.8352 6.33353 9.73283 6.59064 9.86528C6.84726 9.99825 6.94887 10.3157 6.81753 10.5749C5.81324 12.545 5.5671 14.7059 5.97136 16.7189C6.38393 18.7715 7.47273 20.6724 9.12432 22.062C9.34635 22.2487 9.37614 22.5816 9.1909 22.8055C9.00561 23.0289 8.6754 23.0589 8.45336 22.8721C6.61782 21.3281 5.4068 19.2132 4.9478 16.9277C4.498 14.6873 4.77086 12.2841 5.88723 10.094Z" fill="#EF7D15"/>
<path d="M26.4514 19.0685V4.45094H35.7172V6.54489H28.6507V10.8563H34.6787V12.8272H28.6507V19.0685H26.4514Z" fill="#293982"/>
<path d="M37.1318 19.0685V8.65962H39.2091V19.0685H37.1318ZM37.1318 6.54489V4.45094H39.2091V6.54489H37.1318Z" fill="#293982"/>
<path d="M41.0015 19.0685V8.65962H43.0788V9.76824C43.7358 8.9471 44.6395 8.53647 45.7895 8.53647C46.5559 8.53647 47.2814 8.8033 47.9662 9.33708L46.4592 11.1438C46.0112 10.8019 45.5562 10.6305 45.0948 10.6305C44.5379 10.6305 44.0765 10.8019 43.71 11.1438C43.2891 11.5409 43.0788 12.0952 43.0788 12.8069V19.0685H41.0015Z" fill="#293982"/>
<path d="M47.3951 17.3264L48.841 15.8893C49.7504 16.7791 50.8368 17.2238 52.0993 17.2238C53.4568 17.2238 54.1358 16.7791 54.1358 15.8893C54.1358 15.2873 53.7148 14.9448 52.8732 14.8628L51.0404 14.6984C50.1577 14.6165 49.452 14.329 48.9225 13.8362C48.3523 13.3025 48.0671 12.6045 48.0671 11.7421C48.0671 10.7156 48.4337 9.91503 49.1668 9.34007C49.8593 8.80628 50.7757 8.53946 51.9161 8.53946C53.5045 8.53946 54.8552 9.01167 55.9686 9.95608L54.6856 11.4753C53.7759 10.832 52.8529 10.5104 51.9161 10.5104C50.7348 10.5104 50.1443 10.928 50.1443 11.7627C50.1443 12.3514 50.599 12.6799 51.5088 12.7481L53.2195 12.8713C55.2151 13.0221 56.2129 14.062 56.2129 15.9919C56.2129 16.9775 55.8089 17.7575 55.0014 18.3324C54.1934 18.9073 53.1717 19.1946 51.9364 19.1946C50.2257 19.1946 48.7118 18.572 47.3951 17.3264Z" fill="#293982"/>
<path d="M58.0243 8.65962V5.49785H60.1015V8.65962H61.6086V10.261H60.1015V16.3174C60.1015 16.8378 60.3459 17.0976 60.8347 17.0976H61.6086V19.0685H60.5291C59.7824 19.0685 59.1781 18.8427 58.7168 18.391C58.2551 17.9394 58.0243 17.31 58.0243 16.5021V10.261H56.9857V8.65962H58.0243Z" fill="#293982"/>
<path d="M70.3656 13.8332H74.6015L72.504 7.44838H72.4632L70.3656 13.8332ZM76.3528 19.0685L75.2328 15.8042H69.7344L68.6143 19.0685H66.2927L71.5672 4.45094H73.3999L78.6744 19.0685H76.3528Z" fill="#293982"/>
<path d="M83.2165 10.6335C82.3475 10.6335 81.7636 10.9691 81.4652 11.6395C81.2615 12.0911 81.1597 12.8302 81.1597 13.8568C81.1597 14.897 81.2615 15.643 81.4652 16.0946C81.7636 16.7653 82.3475 17.1006 83.2165 17.1006C84.0718 17.1006 84.6554 16.7515 84.9679 16.0536C85.1579 15.6019 85.253 14.8699 85.253 13.8568C85.253 12.8579 85.1579 12.1321 84.9679 11.6806C84.6554 10.9826 84.0718 10.6335 83.2165 10.6335ZM85.253 19.0715V17.9835C84.5199 18.7911 83.6305 19.1946 82.5852 19.1946C81.1731 19.1946 80.1549 18.5926 79.5306 17.3881C79.2317 16.8269 79.0825 15.65 79.0825 13.8568C79.0825 12.803 79.1029 12.1187 79.1436 11.8039C79.225 10.9962 79.4491 10.3598 79.8156 9.89438C80.5081 8.99114 81.4312 8.53946 82.5852 8.53946C83.5084 8.53946 84.3977 8.95009 85.253 9.77123V4.45394H87.3301V19.0715H85.253Z" fill="#293982"/>
<path d="M92.1165 19.0685L88.3286 8.65962H90.5281L92.9515 15.9478H92.9921L95.4155 8.65962H97.6149L93.8271 19.0685H92.1165Z" fill="#293982"/>
<path d="M103.865 15.4172V14.6573H101.38C100.185 14.6573 99.5881 15.0751 99.5881 15.9098C99.5881 16.7859 100.24 17.2238 101.543 17.2238C102.412 17.2238 102.975 17.1487 103.233 16.9978C103.654 16.7653 103.865 16.2383 103.865 15.4172ZM103.865 19.0715V18.1477C103.441 18.8456 102.587 19.1946 101.302 19.1946C100.168 19.1946 99.2661 18.8867 98.5966 18.2707C97.9541 17.696 97.6332 16.9434 97.6332 16.0125C97.6332 15.1367 97.9182 14.4182 98.4884 13.8568C99.0993 13.2409 99.9343 12.9329 100.993 12.9329H103.865V11.8449C103.865 11.352 103.702 11.0066 103.376 10.8079C103.05 10.6098 102.507 10.5104 101.747 10.5104C100.769 10.5104 100.118 10.7772 99.7918 11.311L98.1625 10.0587C98.8821 9.04596 100.043 8.53946 101.645 8.53946C104.509 8.53946 105.942 9.68237 105.942 11.9681V19.0715H103.865Z" fill="#293982"/>
<path d="M107.653 19.0685V8.65962H109.73V9.76824C110.386 8.9471 111.288 8.53647 112.436 8.53647C113.324 8.53647 114.103 8.84435 114.773 9.46036C115.525 10.1448 115.9 11.0412 115.9 12.1498V19.0685H113.823V12.8683C113.823 12.1703 113.633 11.623 113.253 11.2259C112.873 10.829 112.384 10.6305 111.787 10.6305C111.176 10.6305 110.68 10.829 110.3 11.2259C109.92 11.623 109.73 12.1703 109.73 12.8683V19.0685H107.653Z" fill="#293982"/>
<path d="M118.047 8.65962V5.49785H120.125V8.65962H121.632V10.261H120.125V16.3174C120.125 16.8378 120.369 17.0976 120.858 17.0976H121.632V19.0685H120.552C119.805 19.0685 119.201 18.8427 118.74 18.391C118.278 17.9394 118.047 17.31 118.047 16.5021V10.261H117.009V8.65962H118.047Z" fill="#293982"/>
<path d="M128.596 15.4172V14.6573H126.112C124.917 14.6573 124.319 15.0751 124.319 15.9098C124.319 16.7859 124.971 17.2238 126.274 17.2238C127.143 17.2238 127.707 17.1487 127.965 16.9978C128.386 16.7653 128.596 16.2383 128.596 15.4172ZM128.596 19.0715V18.1477C128.172 18.8456 127.318 19.1946 126.034 19.1946C124.899 19.1946 123.997 18.8867 123.328 18.2707C122.685 17.696 122.364 16.9434 122.364 16.0125C122.364 15.1367 122.65 14.4182 123.22 13.8568C123.831 13.2409 124.666 12.9329 125.725 12.9329H128.596V11.8449C128.596 11.352 128.432 11.0066 128.108 10.8079C127.781 10.6098 127.239 10.5104 126.477 10.5104C125.5 10.5104 124.849 10.7772 124.523 11.311L122.894 10.0587C123.613 9.04596 124.774 8.53946 126.376 8.53946C129.241 8.53946 130.673 9.68237 130.673 11.9681V19.0715H128.596Z" fill="#293982"/>
<path d="M134.115 13.8743C134.115 14.7093 134.139 15.2636 134.185 15.5373C134.234 15.8112 134.345 16.0643 134.522 16.2968C134.929 16.8307 135.479 17.0976 136.171 17.0976C136.85 17.0976 137.394 16.8307 137.801 16.2968C137.977 16.0643 138.089 15.8112 138.137 15.5373C138.184 15.2636 138.208 14.7093 138.208 13.8743C138.208 13.0259 138.184 12.4647 138.137 12.1908C138.089 11.9171 137.977 11.6641 137.801 11.4313C137.394 10.8974 136.85 10.6305 136.171 10.6305C135.479 10.6305 134.929 10.8974 134.522 11.4313C134.345 11.6641 134.234 11.9171 134.185 12.1908C134.139 12.4647 134.115 13.0259 134.115 13.8743ZM138.208 19.0479V17.9805C137.475 18.7881 136.586 19.1916 135.54 19.1916C134.373 19.1916 133.463 18.7677 132.811 17.9188C132.418 17.4125 132.18 16.7691 132.099 15.9888C132.057 15.688 132.037 14.9829 132.037 13.8743C132.037 12.7521 132.057 12.047 132.099 11.7597C132.18 10.9661 132.418 10.3158 132.811 9.80927C133.463 8.96085 134.373 8.53645 135.54 8.53645C136.545 8.53645 137.434 8.94708 138.208 9.76822V8.6596H140.286V18.8221C140.286 20.3138 139.837 21.4706 138.941 22.2919C138.126 23.031 137.081 23.4004 135.805 23.4004C134.433 23.4004 133.24 22.8186 132.22 21.6553L133.83 20.3619C134.454 20.9913 135.126 21.3063 135.846 21.3063C136.551 21.3063 137.122 21.1077 137.557 20.7109C137.991 20.3138 138.208 19.7595 138.208 19.0479Z" fill="#293982"/>
<path d="M143.565 12.9329H147.922C147.894 12.1665 147.681 11.5712 147.281 11.1468C146.88 10.7226 146.368 10.5104 145.743 10.5104C145.119 10.5104 144.603 10.7226 144.196 11.1468C143.788 11.5712 143.577 12.1665 143.565 12.9329ZM150 14.6573H143.565C143.565 15.4786 143.791 16.112 144.246 16.5565C144.701 17.0014 145.296 17.2238 146.028 17.2238C146.897 17.2238 147.65 16.8886 148.289 16.2178L149.796 17.5111C148.832 18.6336 147.59 19.1946 146.07 19.1946C144.793 19.1946 143.768 18.8456 142.994 18.1477C141.989 17.2581 141.487 15.8416 141.487 13.8978C141.487 12.0366 141.949 10.6405 142.872 9.70965C143.632 8.92944 144.589 8.53946 145.743 8.53946C146.925 8.53946 147.922 8.93645 148.737 9.73017C149.579 10.5652 150 11.6328 150 12.9329V14.6573Z" fill="#293982"/>
</svg>
