<svg width="221" height="42" viewBox="0 0 221 42" fill="none" xmlns="http://www.w3.org/2000/svg">
<path d="M1.62257 30.7898C1.48831 30.3531 1.73461 29.8901 2.17361 29.7563C2.61322 29.622 3.07795 29.8678 3.21291 30.3045C3.26783 30.4824 3.30611 30.6043 3.32698 30.6673C3.33954 30.7054 3.38057 30.8257 3.45009 31.0252C3.60044 31.4571 3.37015 31.9284 2.9353 32.0781C2.50126 32.2276 2.0275 31.9984 1.87718 31.5665C1.85982 31.5173 1.81738 31.3886 1.74778 31.1775C1.68658 30.9913 1.64484 30.8626 1.62257 30.7898ZM8.11182 9.37513C8.55639 9.26021 9.00998 9.52543 9.12547 9.96773C9.24167 10.4102 8.97453 10.8621 8.53066 10.977C7.96439 11.1251 7.42387 11.3516 6.92573 11.6506C6.43392 11.9448 5.98104 12.3109 5.58309 12.7428C5.27356 13.0786 4.74824 13.1002 4.41158 12.792C4.07419 12.4834 4.05189 11.9614 4.36215 11.6256C4.86719 11.0768 5.44467 10.6109 6.07142 10.235C6.71145 9.85141 7.39946 9.56221 8.11182 9.37513ZM20.936 6.96497C21.2463 7.30194 21.2226 7.82539 20.8838 8.13338C20.5449 8.44157 20.0191 8.41858 19.7087 8.08081C19.1899 7.51739 18.6221 6.99815 18.01 6.53366C17.4082 6.07757 16.7543 5.66565 16.0503 5.3063C15.6155 5.08345 15.1716 4.88758 14.7208 4.7165C14.2589 4.54082 13.7984 4.39471 13.3419 4.27779C12.8981 4.16347 12.6317 3.71298 12.7465 3.27188C12.8613 2.83038 13.3142 2.56515 13.7573 2.67928C14.2867 2.81578 14.8057 2.97907 15.3121 3.17154C15.8151 3.36181 16.3146 3.58346 16.8078 3.83609C17.5932 4.23682 18.33 4.70211 19.0152 5.22195C19.72 5.75639 20.3613 6.34059 20.936 6.96497ZM29.9479 14.6126C29.8935 14.1591 30.2199 13.748 30.6754 13.694C31.1312 13.6406 31.5444 13.9654 31.5986 14.4187C31.7747 15.9485 31.7872 17.5046 31.6265 19.0602C31.4692 20.5823 31.1472 22.1011 30.6525 23.5901C30.5085 24.024 30.0389 24.26 29.6028 24.1167C29.1665 23.9742 28.9301 23.5063 29.0733 23.0728C29.5311 21.694 29.8288 20.2929 29.9736 18.8919C30.1216 17.4596 30.11 16.0246 29.9479 14.6126ZM23.7027 35.2096C24.1613 35.2194 24.525 35.5966 24.5152 36.0535C24.5055 36.5097 24.1263 36.8716 23.6671 36.8621C23.5169 36.8585 23.3681 36.8523 23.2226 36.8439C23.0682 36.8357 22.9201 36.8247 22.7803 36.8115C22.3232 36.7713 21.9857 36.3693 22.0269 35.9143C22.0679 35.4596 22.4714 35.1238 22.9284 35.1646C23.0656 35.177 23.1955 35.1868 23.3172 35.1938C23.448 35.2014 23.5768 35.2068 23.7027 35.2096ZM5.71732 23.9478C5.71875 24.4042 5.34794 24.7745 4.88949 24.7759C4.43102 24.7771 4.05888 24.4082 4.05748 23.952C4.05676 22.9138 4.1368 21.876 4.30094 20.8487C4.46234 19.8382 4.7065 18.8261 5.03628 17.8224C5.17751 17.3883 5.6457 17.1517 6.08187 17.293C6.5174 17.4341 6.7553 17.8999 6.61407 18.3333C6.31561 19.2422 6.09229 20.169 5.94345 21.1042C5.79108 22.0575 5.71662 23.0078 5.71732 23.9478ZM7.50737 31.7879C7.70564 32.2007 7.52964 32.6941 7.11496 32.8908C6.70038 33.088 6.20433 32.913 6.00679 32.5002C5.63597 31.7278 5.31317 30.9227 5.04114 30.0927C4.77327 29.2746 4.55837 28.4362 4.39768 27.5834C4.3142 27.1349 4.61126 26.7044 5.06131 26.6206C5.51216 26.5375 5.94486 26.8331 6.02906 27.281C6.17507 28.0576 6.37264 28.8273 6.62034 29.5832C6.86381 30.3273 7.16016 31.064 7.50737 31.7879ZM22.8832 14.313C22.7942 13.8657 23.0862 13.4318 23.5358 13.343C23.9851 13.2545 24.422 13.5451 24.5112 13.9924C24.8311 15.5865 24.8874 17.2388 24.6564 18.8809C24.4338 20.4654 23.9447 22.0395 23.1692 23.5415C23.0551 23.7637 23.041 24.0102 23.1122 24.2297C23.1823 24.4483 23.3375 24.6402 23.5595 24.7537C23.7826 24.8678 24.0311 24.881 24.2508 24.8111C24.4708 24.7405 24.6634 24.5868 24.7775 24.3654C25.0655 23.8087 25.3188 23.2397 25.5386 22.6631C25.7599 22.0831 25.9463 21.4947 26.0986 20.9001C26.2113 20.4576 26.6636 20.1898 27.1081 20.3019C27.5532 20.414 27.8226 20.8641 27.7099 21.3064C27.5428 21.9578 27.3369 22.6072 27.0914 23.2515C26.852 23.8793 26.5738 24.5031 26.255 25.1191C25.9317 25.7456 25.3827 26.1831 24.7574 26.3832C24.1319 26.5825 23.4313 26.5451 22.8024 26.2239C22.1721 25.9021 21.7332 25.3559 21.5322 24.7329C21.3311 24.1113 21.3687 23.4134 21.6915 22.7876C22.381 21.4531 22.8151 20.0563 23.0125 18.6516C23.2178 17.1938 23.1678 15.727 22.8832 14.313ZM21.59 10.7278C21.3735 10.3243 21.5274 9.82243 21.9329 9.60718C22.3384 9.39252 22.8428 9.54482 23.0585 9.94835C23.0814 9.99072 23.1357 10.0964 23.2212 10.2655C23.2881 10.3976 23.3403 10.5036 23.3793 10.5853C23.5747 10.9978 23.3974 11.4907 22.9826 11.6852C22.568 11.8804 22.0727 11.704 21.8767 11.2914C21.8196 11.1701 21.7728 11.0754 21.7389 11.0074C21.7228 10.9762 21.6734 10.8835 21.59 10.7278ZM34.9922 20.1414C34.9323 20.5941 34.5157 20.9131 34.0599 20.8537C33.605 20.7948 33.2842 20.3795 33.3441 19.9268C33.3726 19.7101 33.3929 19.5522 33.4039 19.4513C33.4158 19.346 33.4319 19.1869 33.4513 18.9756C33.4923 18.5209 33.8958 18.1852 34.3528 18.2259C34.81 18.2669 35.1472 18.669 35.1062 19.1237C35.0958 19.2408 35.0777 19.4103 35.0526 19.6334C35.0277 19.8604 35.0074 20.0299 34.9922 20.1414ZM27.307 32.8118C26.8763 32.9709 26.3971 32.7536 26.2364 32.3252C26.0763 31.8967 26.2948 31.4198 26.7255 31.2599C27.2075 31.0806 27.6659 30.8584 28.0937 30.5968C28.5224 30.3337 28.9287 30.0277 29.3049 29.6815C29.6418 29.3713 30.167 29.3922 30.478 29.7273C30.7889 30.0623 30.7686 30.5855 30.4314 30.8952C29.9776 31.3131 29.4859 31.6828 28.9655 32.002C28.4326 32.3286 27.8768 32.5994 27.307 32.8118ZM15.2203 20.2681C15.3991 19.8472 15.8868 19.6506 16.3091 19.8292C16.732 20.0071 16.9289 20.4924 16.7501 20.9125C16.0683 22.5116 15.964 24.2289 16.3578 25.8184C16.7549 27.4248 17.6621 28.8993 18.9943 29.9855C19.3498 30.2742 19.4034 30.7954 19.1134 31.1492C18.8225 31.5027 18.2993 31.5555 17.9439 31.2667C16.3265 29.9481 15.2259 28.1586 14.7437 26.2094C14.2672 24.2857 14.3939 22.2048 15.2203 20.2681Z" fill="#293982"/>
<path d="M10.0164 35.2791C10.3122 35.6278 10.2676 36.1491 9.91694 36.4433C9.56567 36.7375 9.04178 36.6926 8.74683 36.3437C8.58058 36.1471 8.4213 35.9518 8.26962 35.7587C8.1284 35.5781 7.97743 35.3767 7.81738 35.1552C7.5503 34.7848 7.63653 34.2692 8.00874 34.0039C8.38088 33.7381 8.89921 33.8241 9.16637 34.1944C9.28735 34.3625 9.42655 34.5466 9.58238 34.7453C9.72706 34.9302 9.87174 35.108 10.0164 35.2791Z" fill="#2AB7EB"/>
<path d="M28.2451 17.9121C28.2208 18.3668 27.8297 18.7164 27.3727 18.6922C26.915 18.668 26.5637 18.2789 26.588 17.8234C26.7147 15.4388 26.3118 13.0636 25.4332 10.8659C24.5637 8.68956 23.2265 6.69192 21.4754 5.03604C21.143 4.72185 21.1289 4.19781 21.4455 3.86623C21.762 3.53526 22.2881 3.52147 22.6213 3.83645C24.5504 5.66042 26.0223 7.86092 26.9804 10.2567C27.9438 12.6671 28.3849 15.2803 28.2451 17.9121Z" fill="#2AB7EB"/>
<path d="M20.7454 33.0125C20.3147 32.858 20.0913 32.3845 20.2466 31.956C20.4025 31.5269 20.8775 31.3047 21.3088 31.4598C21.6922 31.5983 22.0797 31.7048 22.4679 31.7803C22.8608 31.8571 23.2587 31.9028 23.6589 31.9186C24.1172 31.9355 24.4742 32.3188 24.4575 32.7751C24.4408 33.2305 24.0554 33.5863 23.597 33.5698C23.1169 33.5509 22.6327 33.4949 22.1486 33.4C21.6755 33.3081 21.2065 33.1786 20.7454 33.0125Z" fill="#2AB7EB"/>
<path d="M7.74119 15.9564C7.53177 16.3627 7.03159 16.5232 6.62327 16.315C6.21558 16.1073 6.05419 15.6088 6.26359 15.2033C6.80554 14.1524 7.72589 13.4201 8.77431 13.085C9.82201 12.75 10.9977 12.8123 12.0524 13.3516C13.1084 13.8914 13.8444 14.8072 14.1818 15.8505C14.5178 16.893 14.4552 18.0628 13.9132 19.1123C13.5856 19.747 13.3227 20.4038 13.123 21.0747C12.9177 21.7649 12.7828 22.4556 12.7146 23.1382C12.6694 23.5916 12.2631 23.9232 11.8074 23.8788C11.3511 23.8339 11.0178 23.4303 11.063 22.9762C11.1431 22.174 11.2968 21.3805 11.527 20.6067C11.7525 19.8494 12.0537 19.0971 12.4356 18.3584C12.7689 17.7126 12.8078 16.9933 12.6012 16.3537C12.3953 15.7148 11.9431 15.1534 11.2954 14.8226C10.6456 14.4902 9.92282 14.4514 9.28006 14.6571C8.63792 14.862 8.07372 15.3118 7.74119 15.9564Z" fill="#2AB7EB"/>
<path d="M20.0184 1.39288C20.4033 1.64131 20.5124 2.15356 20.2627 2.5365C20.0122 2.91844 19.4982 3.02717 19.1134 2.77874C19.0501 2.73777 18.973 2.6886 18.8789 2.62984C18.8233 2.59526 18.7426 2.5467 18.6403 2.48514C18.2473 2.2485 18.1207 1.73965 18.3579 1.34851C18.5959 0.957376 19.1071 0.831461 19.5002 1.0681C19.5649 1.10687 19.6519 1.16024 19.7611 1.22879C19.832 1.27296 19.919 1.32852 20.0184 1.39288Z" fill="#3C6BBD"/>
<path d="M18.0636 24.8437C17.9725 24.3972 18.2625 23.9611 18.712 23.8711C19.1607 23.7804 19.5982 24.0698 19.6894 24.5163C19.8201 25.1524 20.0929 25.7569 20.4914 26.2795C20.8727 26.7805 21.373 27.2071 21.976 27.5157C23.0516 28.0653 24.2482 28.1296 25.3147 27.7891C26.3791 27.4485 27.3141 26.7038 27.8657 25.6349C28.0752 25.2286 28.5753 25.068 28.9837 25.2764C29.3912 25.484 29.5527 25.9825 29.3432 26.388C28.5822 27.8632 27.291 28.8912 25.8203 29.3612C24.3498 29.8313 22.6995 29.7434 21.2186 28.9861C20.3892 28.5618 19.6992 27.9712 19.169 27.2748C18.6194 26.5543 18.2438 25.7209 18.0636 24.8437Z" fill="#3C6BBD"/>
<path d="M1.56933 12.1875C1.35991 12.5931 0.859702 12.7536 0.451308 12.5459C0.0437084 12.3376 -0.117689 11.84 0.0917265 11.4336C0.20581 11.2128 0.329626 10.9919 0.462456 10.7719C0.598119 10.5474 0.73589 10.335 0.87571 10.1357C1.13864 9.76178 1.65626 9.67044 2.03193 9.93147C2.40831 10.1925 2.5001 10.7081 2.2372 11.0819C2.11055 11.2626 1.99301 11.4426 1.88512 11.6211C1.77732 11.7998 1.67155 11.9887 1.56933 12.1875Z" fill="#3C6BBD"/>
<path d="M0.774333 20.7296C0.830675 20.2778 1.24463 19.9566 1.69886 20.0119C2.15315 20.0679 2.47664 20.4798 2.42032 20.9319C2.30207 21.8642 2.24635 22.7988 2.25123 23.7292C2.25545 24.665 2.32224 25.6009 2.4495 26.5299C2.51211 26.9812 2.19419 27.3985 1.73996 27.4609C1.28567 27.5232 0.86685 27.2069 0.804222 26.7548C0.668579 25.7622 0.597635 24.7549 0.592071 23.7402C0.58721 22.7393 0.646987 21.7342 0.774333 20.7296Z" fill="#3C6BBD"/>
<path d="M20.0719 34.2103C20.5019 34.3688 20.7211 34.8445 20.5618 35.2716C20.4025 35.6993 19.9245 35.9173 19.4946 35.7588C19.2407 35.6661 18.9965 35.5677 18.7627 35.4654C18.5297 35.3635 18.2917 35.2508 18.0483 35.1261C16.3883 34.2774 14.9908 33.1228 13.8888 31.7667C12.7444 30.3589 11.9186 28.7334 11.4497 27.0098C11.4045 26.8431 11.3565 26.6444 11.305 26.4145C11.2626 26.2215 11.2237 26.022 11.1882 25.8178C11.1096 25.3687 11.4121 24.9408 11.863 24.8632C12.3144 24.785 12.7437 25.0854 12.8223 25.5348C12.8522 25.7064 12.8871 25.8821 12.9267 26.0614C12.9587 26.2047 13.0018 26.3786 13.0568 26.5807C13.4658 28.0848 14.1858 29.5025 15.1835 30.7305C16.1435 31.9115 17.361 32.9173 18.8053 33.6559C19.0055 33.7584 19.2148 33.8573 19.4327 33.952C19.6525 34.0484 19.866 34.1349 20.0719 34.2103Z" fill="#3C6BBD"/>
<path d="M15.2351 8.50795C14.8483 8.26291 14.7329 7.75206 14.9792 7.36652C15.2247 6.98098 15.7382 6.86666 16.1256 7.1117C18.5626 8.65205 20.2259 11.0077 20.939 13.6263C21.6444 16.2193 21.417 19.074 20.0847 21.6554C19.8754 22.0609 19.3751 22.2217 18.9667 22.0131C18.5592 21.8055 18.3977 21.3073 18.6064 20.9015C19.7418 18.7038 19.9339 16.2699 19.3321 14.0554C18.7247 11.8237 17.3083 9.81846 15.2351 8.50795Z" fill="#3C6BBD"/>
<path d="M4.68311 9.28653C4.30398 9.54415 3.78638 9.44722 3.52761 9.06927C3.26876 8.69193 3.36622 8.17708 3.74605 7.91945C5.06013 7.02706 6.55169 6.42427 8.11275 6.14526C9.65164 5.87044 11.2544 5.91202 12.8184 6.30235C13.2629 6.41328 13.5328 6.86117 13.4222 7.30327C13.3108 7.74577 12.8608 8.01499 12.4162 7.90486C11.0826 7.57189 9.71841 7.53591 8.40981 7.76916C7.08177 8.006 5.80872 8.52165 4.68311 9.28653Z" fill="#EF7D15"/>
<path d="M27.1277 6.75042C26.8883 6.36069 27.0128 5.85123 27.4045 5.61319C27.797 5.37496 28.309 5.49827 28.5482 5.88861C29.0317 6.67427 29.4679 7.50231 29.8554 8.36672C30.2414 9.22714 30.5685 10.1035 30.8342 10.9903C30.9658 11.4278 30.7153 11.8887 30.2756 12.0188C29.8359 12.1498 29.3733 11.9005 29.2426 11.463C28.9921 10.629 28.6902 9.81774 28.3395 9.03547C27.9938 8.2636 27.5889 7.50011 27.1277 6.75042Z" fill="#EF7D15"/>
<path d="M2.55271 14.9201C2.73772 14.5018 3.22819 14.3123 3.64835 14.4964C4.06787 14.6805 4.25847 15.1685 4.07346 15.5866C3.91622 15.9438 3.76525 16.3133 3.6219 16.6941C3.47722 17.079 3.34714 17.455 3.23235 17.8203C3.09598 18.2564 2.63062 18.5001 2.19232 18.3652C1.75404 18.2302 1.50917 17.767 1.64483 17.3309C1.77704 16.9115 1.91684 16.5058 2.06427 16.1133C2.21179 15.7223 2.3746 15.3242 2.55271 14.9201Z" fill="#EF7D15"/>
<path d="M10.5562 2.52039C11.0154 2.53359 11.3772 2.91433 11.3639 3.37122C11.3507 3.82871 10.968 4.18786 10.5082 4.17547C10.4164 4.17207 10.328 4.17067 10.2453 4.16928C10.1645 4.16868 10.0776 4.16868 9.98368 4.16928C9.52451 4.17407 9.14751 3.80792 9.14263 3.35043C9.13769 2.89354 9.50577 2.51839 9.96554 2.5134C10.0567 2.5128 10.1555 2.5128 10.2599 2.5142C10.3635 2.5156 10.4623 2.5176 10.5562 2.52039Z" fill="#EF7D15"/>
<path d="M32.6121 28.2103C32.4088 28.6188 31.9115 28.7863 31.5011 28.5842C31.0899 28.382 30.9222 27.8871 31.1253 27.478C31.4433 26.8376 31.7293 26.1877 31.9838 25.5307C32.2385 24.8738 32.463 24.2044 32.6573 23.524C32.7818 23.0852 33.241 22.829 33.6819 22.9522C34.1238 23.0761 34.3811 23.5331 34.2565 23.9719C34.0521 24.6882 33.81 25.4076 33.531 26.1267C33.2597 26.8266 32.9535 27.5223 32.6121 28.2103Z" fill="#EF7D15"/>
<path d="M11.2085 11.1746C10.7584 11.0907 10.4614 10.6588 10.5455 10.2109C10.6297 9.7624 11.0631 9.4668 11.5139 9.55055C11.8805 9.6191 12.2436 9.71404 12.602 9.83575C12.9512 9.95547 13.2969 10.1016 13.6364 10.2755C15.0257 10.985 16.1081 12.0544 16.8296 13.3094C17.5732 14.6045 17.9322 16.0983 17.8453 17.6005C17.8188 18.056 17.4265 18.4041 16.9681 18.3786C16.5102 18.3522 16.1604 17.9618 16.1867 17.5055C16.2549 16.3226 15.9732 15.1479 15.3881 14.1296C14.8218 13.1433 13.9711 12.3035 12.8795 11.7457C12.6117 11.6086 12.3376 11.493 12.06 11.3981C11.7783 11.302 11.4937 11.2272 11.2085 11.1746Z" fill="#EF7D15"/>
<path d="M9.34944 16.7749C9.55815 16.3692 10.0583 16.2087 10.4667 16.4164C10.8743 16.6248 11.0357 17.1225 10.8271 17.5288C9.23191 20.6175 8.84093 24.0052 9.48307 27.1611C10.1384 30.3791 11.8678 33.3591 14.4912 35.5376C14.8439 35.8304 14.8912 36.3522 14.597 36.7032C14.3027 37.0535 13.7781 37.1005 13.4255 36.8078C10.5099 34.3871 8.58632 31.0714 7.85725 27.4885C7.14278 23.9761 7.5762 20.2084 9.34944 16.7749Z" fill="#EF7D15"/>
<path d="M56.1279 20.085V23H44.8047V20.085H56.1279ZM45.8447 1.67188V23H42.168V1.67188H45.8447ZM54.6484 10.5781V13.4492H44.8047V10.5781H54.6484ZM56.0547 1.67188V4.60156H44.8047V1.67188H56.0547ZM63.1586 0.5V23H59.6137V0.5H63.1586ZM74.6131 23.293C73.4412 23.293 72.3816 23.1025 71.4344 22.7217C70.4969 22.3311 69.6961 21.7891 69.032 21.0957C68.3777 20.4023 67.8748 19.5869 67.5232 18.6494C67.1717 17.7119 66.9959 16.7012 66.9959 15.6172V15.0312C66.9959 13.791 67.1766 12.668 67.5379 11.6621C67.8992 10.6562 68.4021 9.79688 69.0467 9.08398C69.6912 8.36133 70.4529 7.80957 71.3318 7.42871C72.2107 7.04785 73.1629 6.85742 74.1883 6.85742C75.3211 6.85742 76.3123 7.04785 77.1619 7.42871C78.0115 7.80957 78.7146 8.34668 79.2713 9.04004C79.8377 9.72363 80.2576 10.5391 80.5311 11.4863C80.8143 12.4336 80.9559 13.4785 80.9559 14.6211V16.1299H68.7098V13.5957H77.4695V13.3174C77.45 12.6826 77.323 12.0869 77.0887 11.5303C76.8641 10.9736 76.5174 10.5244 76.0486 10.1826C75.5799 9.84082 74.9549 9.66992 74.1736 9.66992C73.5877 9.66992 73.0652 9.79688 72.6063 10.0508C72.157 10.2949 71.7811 10.6514 71.4783 11.1201C71.1756 11.5889 70.9412 12.1553 70.7752 12.8193C70.6189 13.4736 70.5408 14.2109 70.5408 15.0312V15.6172C70.5408 16.3105 70.6336 16.9551 70.8191 17.5508C71.0145 18.1367 71.2977 18.6494 71.6688 19.0889C72.0398 19.5283 72.4891 19.875 73.0164 20.1289C73.5438 20.373 74.1443 20.4951 74.8182 20.4951C75.6678 20.4951 76.4246 20.3242 77.0887 19.9824C77.7527 19.6406 78.3289 19.1572 78.8172 18.5322L80.6775 20.334C80.3357 20.832 79.8914 21.3105 79.3445 21.7695C78.7977 22.2188 78.1287 22.585 77.3377 22.8682C76.5564 23.1514 75.6482 23.293 74.6131 23.293ZM87.84 10.373V23H84.3098V7.15039H87.635L87.84 10.373ZM87.2687 14.4893L86.0676 14.4746C86.0676 13.3809 86.2043 12.3701 86.4777 11.4424C86.7512 10.5146 87.1516 9.70898 87.6789 9.02539C88.2062 8.33203 88.8605 7.7998 89.6418 7.42871C90.4328 7.04785 91.3459 6.85742 92.3811 6.85742C93.1037 6.85742 93.7629 6.96484 94.3586 7.17969C94.9641 7.38477 95.4865 7.71191 95.926 8.16113C96.3752 8.61035 96.717 9.18652 96.9514 9.88965C97.1955 10.5928 97.3176 11.4424 97.3176 12.4385V23H93.7873V12.7461C93.7873 11.9746 93.6701 11.3691 93.4357 10.9297C93.2111 10.4902 92.884 10.1777 92.4543 9.99219C92.0344 9.79688 91.5314 9.69922 90.9455 9.69922C90.2814 9.69922 89.715 9.82617 89.2463 10.0801C88.7873 10.334 88.4113 10.6807 88.1184 11.1201C87.8254 11.5596 87.6105 12.0674 87.4738 12.6436C87.3371 13.2197 87.2687 13.835 87.2687 14.4893ZM97.0979 13.5518L95.4426 13.918C95.4426 12.9609 95.5744 12.0576 95.8381 11.208C96.1115 10.3486 96.507 9.59668 97.0246 8.95215C97.552 8.29785 98.2014 7.78516 98.9729 7.41406C99.7443 7.04297 100.628 6.85742 101.624 6.85742C102.435 6.85742 103.157 6.96973 103.792 7.19434C104.437 7.40918 104.984 7.75098 105.433 8.21973C105.882 8.68848 106.224 9.29883 106.458 10.0508C106.693 10.793 106.81 11.6914 106.81 12.7461V23H103.265V12.7314C103.265 11.9307 103.148 11.3105 102.913 10.8711C102.689 10.4316 102.366 10.1289 101.946 9.96289C101.527 9.78711 101.024 9.69922 100.438 9.69922C99.8908 9.69922 99.4074 9.80176 98.9875 10.0068C98.5773 10.2021 98.2307 10.4805 97.9475 10.8418C97.6643 11.1934 97.4494 11.5986 97.3029 12.0576C97.1662 12.5166 97.0979 13.0146 97.0979 13.5518ZM118.03 23.293C116.858 23.293 115.798 23.1025 114.851 22.7217C113.914 22.3311 113.113 21.7891 112.449 21.0957C111.795 20.4023 111.292 19.5869 110.94 18.6494C110.588 17.7119 110.413 16.7012 110.413 15.6172V15.0312C110.413 13.791 110.593 12.668 110.955 11.6621C111.316 10.6562 111.819 9.79688 112.463 9.08398C113.108 8.36133 113.87 7.80957 114.749 7.42871C115.628 7.04785 116.58 6.85742 117.605 6.85742C118.738 6.85742 119.729 7.04785 120.579 7.42871C121.428 7.80957 122.131 8.34668 122.688 9.04004C123.254 9.72363 123.674 10.5391 123.948 11.4863C124.231 12.4336 124.373 13.4785 124.373 14.6211V16.1299H112.127V13.5957H120.886V13.3174C120.867 12.6826 120.74 12.0869 120.505 11.5303C120.281 10.9736 119.934 10.5244 119.465 10.1826C118.997 9.84082 118.372 9.66992 117.59 9.66992C117.004 9.66992 116.482 9.79688 116.023 10.0508C115.574 10.2949 115.198 10.6514 114.895 11.1201C114.592 11.5889 114.358 12.1553 114.192 12.8193C114.036 13.4736 113.958 14.2109 113.958 15.0312V15.6172C113.958 16.3105 114.05 16.9551 114.236 17.5508C114.431 18.1367 114.714 18.6494 115.086 19.0889C115.457 19.5283 115.906 19.875 116.433 20.1289C116.961 20.373 117.561 20.4951 118.235 20.4951C119.085 20.4951 119.841 20.3242 120.505 19.9824C121.17 19.6406 121.746 19.1572 122.234 18.5322L124.094 20.334C123.753 20.832 123.308 21.3105 122.761 21.7695C122.214 22.2188 121.546 22.585 120.754 22.8682C119.973 23.1514 119.065 23.293 118.03 23.293ZM131.228 10.5342V23H127.697V7.15039H131.022L131.228 10.5342ZM130.598 14.4893L129.455 14.4746C129.465 13.3516 129.621 12.3213 129.924 11.3838C130.236 10.4463 130.666 9.64062 131.213 8.9668C131.77 8.29297 132.434 7.77539 133.205 7.41406C133.977 7.04297 134.836 6.85742 135.783 6.85742C136.545 6.85742 137.233 6.96484 137.849 7.17969C138.474 7.38477 139.006 7.72168 139.445 8.19043C139.895 8.65918 140.236 9.26953 140.471 10.0215C140.705 10.7637 140.822 11.6768 140.822 12.7607V23H137.277V12.7461C137.277 11.9844 137.165 11.3838 136.94 10.9443C136.726 10.4951 136.408 10.1777 135.988 9.99219C135.578 9.79688 135.065 9.69922 134.45 9.69922C133.845 9.69922 133.303 9.82617 132.824 10.0801C132.346 10.334 131.94 10.6807 131.608 11.1201C131.286 11.5596 131.037 12.0674 130.861 12.6436C130.686 13.2197 130.598 13.835 130.598 14.4893ZM152.291 7.15039V9.72852H143.356V7.15039H152.291ZM145.934 3.26855H149.464V18.6201C149.464 19.1084 149.533 19.4844 149.669 19.748C149.816 20.002 150.016 20.1729 150.27 20.2607C150.524 20.3486 150.822 20.3926 151.163 20.3926C151.408 20.3926 151.642 20.3779 151.867 20.3486C152.091 20.3193 152.272 20.29 152.409 20.2607L152.423 22.9561C152.13 23.0439 151.788 23.1221 151.398 23.1904C151.017 23.2588 150.578 23.293 150.079 23.293C149.269 23.293 148.551 23.1514 147.926 22.8682C147.301 22.5752 146.813 22.1016 146.461 21.4473C146.11 20.793 145.934 19.9238 145.934 18.8398V3.26855ZM164.508 18.708C164.508 18.3564 164.42 18.0391 164.244 17.7559C164.068 17.4629 163.731 17.1992 163.233 16.9648C162.745 16.7305 162.022 16.5156 161.065 16.3203C160.225 16.1348 159.454 15.915 158.751 15.6611C158.057 15.3975 157.462 15.0801 156.964 14.709C156.466 14.3379 156.08 13.8984 155.806 13.3906C155.533 12.8828 155.396 12.2969 155.396 11.6328C155.396 10.9883 155.538 10.3779 155.821 9.80176C156.104 9.22559 156.51 8.71777 157.037 8.27832C157.564 7.83887 158.204 7.49219 158.956 7.23828C159.718 6.98438 160.567 6.85742 161.505 6.85742C162.833 6.85742 163.971 7.08203 164.918 7.53125C165.875 7.9707 166.607 8.57129 167.115 9.33301C167.623 10.085 167.877 10.9346 167.877 11.8818H164.346C164.346 11.4619 164.239 11.0713 164.024 10.71C163.819 10.3389 163.507 10.041 163.087 9.81641C162.667 9.58203 162.139 9.46484 161.505 9.46484C160.899 9.46484 160.396 9.5625 159.996 9.75781C159.605 9.94336 159.312 10.1875 159.117 10.4902C158.931 10.793 158.839 11.125 158.839 11.4863C158.839 11.75 158.887 11.9893 158.985 12.2041C159.093 12.4092 159.268 12.5996 159.512 12.7754C159.757 12.9414 160.089 13.0977 160.509 13.2441C160.938 13.3906 161.475 13.5322 162.12 13.6689C163.331 13.9229 164.371 14.25 165.24 14.6504C166.119 15.041 166.793 15.5488 167.262 16.1738C167.73 16.7891 167.965 17.5703 167.965 18.5176C167.965 19.2207 167.813 19.8652 167.511 20.4512C167.218 21.0273 166.788 21.5303 166.221 21.96C165.655 22.3799 164.976 22.707 164.185 22.9414C163.404 23.1758 162.525 23.293 161.549 23.293C160.113 23.293 158.897 23.0391 157.901 22.5312C156.905 22.0137 156.148 21.3545 155.631 20.5537C155.123 19.7432 154.869 18.9033 154.869 18.0342H158.282C158.321 18.6885 158.502 19.2109 158.824 19.6016C159.156 19.9824 159.566 20.2607 160.054 20.4365C160.553 20.6025 161.065 20.6855 161.593 20.6855C162.227 20.6855 162.76 20.6025 163.189 20.4365C163.619 20.2607 163.946 20.0264 164.171 19.7334C164.395 19.4307 164.508 19.0889 164.508 18.708Z" fill="#3C6BBD"/>
<path d="M42.6523 36.0898V28.0004H47.8476V29.1592H43.8855V31.5452H47.2653V32.6359H43.8855V36.0898H42.6523Z" fill="#293982"/>
<path d="M48.6426 36.0898V30.3295H49.8073V36.0898H48.6426ZM48.6426 29.1592V28.0004H49.8073V29.1592H48.6426Z" fill="#293982"/>
<path d="M50.8105 36.0898V30.3295H51.9753V30.943C52.3437 30.4886 52.8504 30.2614 53.4952 30.2614C53.9249 30.2614 54.3317 30.409 54.7156 30.7044L53.8707 31.7043C53.6194 31.515 53.3643 31.4202 53.1057 31.4202C52.7934 31.4202 52.5347 31.515 52.3292 31.7043C52.0932 31.924 51.9753 32.2308 51.9753 32.6246V36.0898H50.8105Z" fill="#293982"/>
<path d="M54.3965 35.1234L55.2072 34.3281C55.7171 34.8205 56.3262 35.0666 57.0341 35.0666C57.7952 35.0666 58.1759 34.8205 58.1759 34.3281C58.1759 33.9949 57.9399 33.8054 57.468 33.76L56.4403 33.669C55.9454 33.6237 55.5497 33.4646 55.2529 33.1919C54.9332 32.8965 54.7733 32.5102 54.7733 32.033C54.7733 31.465 54.9788 31.0219 55.3898 30.7037C55.7781 30.4083 56.2919 30.2606 56.9313 30.2606C57.822 30.2606 58.5793 30.522 59.2036 31.0446L58.4842 31.8854C57.9741 31.5294 57.4566 31.3514 56.9313 31.3514C56.269 31.3514 55.9379 31.5825 55.9379 32.0444C55.9379 32.3702 56.1929 32.552 56.703 32.5897L57.6621 32.6579C58.7811 32.7414 59.3406 33.3168 59.3406 34.3848C59.3406 34.9303 59.114 35.362 58.6612 35.6801C58.2082 35.9983 57.6353 36.1572 56.9428 36.1572C55.9836 36.1572 55.1347 35.8127 54.3965 35.1234Z" fill="#293982"/>
<path d="M60.3577 30.3295V28.5798H61.5224V30.3295H62.3674V31.2157H61.5224V34.5674C61.5224 34.8553 61.6594 34.9991 61.9335 34.9991H62.3674V36.0898H61.7622C61.3435 36.0898 61.0046 35.9648 60.746 35.7149C60.4871 35.465 60.3577 35.1167 60.3577 34.6696V31.2157H59.7754V30.3295H60.3577Z" fill="#293982"/>
<path d="M67.2739 33.1926H69.6489L68.4729 29.6592H68.45L67.2739 33.1926ZM70.6309 36.0898L70.0029 34.2833H66.9199L66.2919 36.0898H64.9902L67.9476 28.0004H68.9752L71.9326 36.0898H70.6309Z" fill="#293982"/>
<path d="M74.482 31.4195C73.9947 31.4195 73.6674 31.6052 73.5 31.9762C73.3858 32.2261 73.3287 32.6352 73.3287 33.2033C73.3287 33.7789 73.3858 34.1917 73.5 34.4417C73.6674 34.8129 73.9947 34.9984 74.482 34.9984C74.9615 34.9984 75.2888 34.8052 75.464 34.419C75.5705 34.169 75.6238 33.7639 75.6238 33.2033C75.6238 32.6505 75.5705 32.2488 75.464 31.999C75.2888 31.6127 74.9615 31.4195 74.482 31.4195ZM75.6238 36.0891V35.487C75.2128 35.9339 74.7141 36.1572 74.128 36.1572C73.3362 36.1572 72.7653 35.8241 72.4153 35.1575C72.2477 34.8469 72.1641 34.1956 72.1641 33.2033C72.1641 32.6201 72.1755 32.2414 72.1983 32.0672C72.244 31.6202 72.3696 31.268 72.5751 31.0105C72.9634 30.5106 73.4809 30.2606 74.128 30.2606C74.6456 30.2606 75.1443 30.4879 75.6238 30.9423V27.9997H76.7884V36.0891H75.6238Z" fill="#293982"/>
<path d="M79.4695 36.0898L77.3457 30.3295H78.5789L79.9377 34.3628H79.9605L81.3193 30.3295H82.5525L80.4286 36.0898H79.4695Z" fill="#293982"/>
<path d="M86.0584 34.0668V33.6463H84.6654C83.9954 33.6463 83.6605 33.8775 83.6605 34.3394C83.6605 34.8242 84.026 35.0666 84.7567 35.0666C85.2438 35.0666 85.5598 35.025 85.7045 34.9415C85.9403 34.8129 86.0584 34.5212 86.0584 34.0668ZM86.0584 36.0891V35.5779C85.8207 35.9641 85.3419 36.1572 84.6216 36.1572C83.9856 36.1572 83.48 35.9868 83.1047 35.6459C82.7444 35.3279 82.5645 34.9114 82.5645 34.3963C82.5645 33.9116 82.7243 33.514 83.044 33.2033C83.3865 32.8624 83.8547 32.692 84.4484 32.692H86.0584V32.0899C86.0584 31.8171 85.9671 31.6259 85.7844 31.516C85.6017 31.4064 85.2971 31.3514 84.8709 31.3514C84.3229 31.3514 83.9574 31.499 83.7748 31.7944L82.8613 31.1014C83.2647 30.5409 83.9155 30.2606 84.8139 30.2606C86.4199 30.2606 87.2231 30.8931 87.2231 32.158V36.0891H86.0584Z" fill="#293982"/>
<path d="M88.1797 36.0898V30.3295H89.3443V30.943C89.712 30.4886 90.2179 30.2614 90.8616 30.2614C91.3597 30.2614 91.7965 30.4317 92.172 30.7726C92.5934 31.1514 92.8041 31.6475 92.8041 32.261V36.0898H91.6394V32.6586C91.6394 32.2723 91.5328 31.9695 91.3197 31.7497C91.1065 31.5301 90.8325 31.4202 90.4976 31.4202C90.155 31.4202 89.8771 31.5301 89.664 31.7497C89.4509 31.9695 89.3443 32.2723 89.3443 32.6586V36.0898H88.1797Z" fill="#293982"/>
<path d="M94.0101 30.3295V28.5798H95.1747V30.3295H96.0197V31.2157H95.1747V34.5674C95.1747 34.8553 95.3118 34.9991 95.5858 34.9991H96.0197V36.0898H95.4145C94.9958 36.0898 94.657 35.9648 94.3983 35.7149C94.1394 35.465 94.0101 35.1167 94.0101 34.6696V31.2157H93.4277V30.3295H94.0101Z" fill="#293982"/>
<path d="M99.9235 34.0668V33.6463H98.531C97.8607 33.6463 97.5258 33.8775 97.5258 34.3394C97.5258 34.8242 97.8912 35.0666 98.6217 35.0666C99.1088 35.0666 99.4251 35.025 99.5697 34.9415C99.8058 34.8129 99.9235 34.5212 99.9235 34.0668ZM99.9235 36.0891V35.5779C99.686 35.9641 99.2074 36.1572 98.487 36.1572C97.8509 36.1572 97.3453 35.9868 96.9699 35.6459C96.6097 35.3279 96.4297 34.9114 96.4297 34.3963C96.4297 33.9116 96.5896 33.514 96.9092 33.2033C97.2518 32.8624 97.7199 32.692 98.314 32.692H99.9235V32.0899C99.9235 31.8171 99.832 31.6259 99.6498 31.516C99.4669 31.4064 99.1627 31.3514 98.7359 31.3514C98.1878 31.3514 97.8227 31.499 97.64 31.7944L96.7266 31.1014C97.1299 30.5409 97.7807 30.2606 98.6792 30.2606C100.285 30.2606 101.088 30.8931 101.088 32.158V36.0891H99.9235Z" fill="#293982"/>
<path d="M103.018 33.2145C103.018 33.6767 103.032 33.9834 103.058 34.1349C103.085 34.2864 103.147 34.4265 103.247 34.5552C103.475 34.8506 103.784 34.9984 104.171 34.9984C104.552 34.9984 104.857 34.8506 105.085 34.5552C105.184 34.4265 105.247 34.2864 105.274 34.1349C105.3 33.9834 105.314 33.6767 105.314 33.2145C105.314 32.745 105.3 32.4345 105.274 32.2829C105.247 32.1314 105.184 31.9914 105.085 31.8626C104.857 31.5671 104.552 31.4194 104.171 31.4194C103.784 31.4194 103.475 31.5671 103.247 31.8626C103.147 31.9914 103.085 32.1314 103.058 32.2829C103.032 32.4345 103.018 32.745 103.018 33.2145ZM105.314 36.0776V35.4869C104.902 35.9338 104.404 36.1572 103.818 36.1572C103.163 36.1572 102.653 35.9226 102.287 35.4528C102.067 35.1726 101.934 34.8165 101.888 34.3848C101.865 34.2183 101.854 33.828 101.854 33.2145C101.854 32.5936 101.865 32.2033 101.888 32.0443C101.934 31.6051 102.067 31.2453 102.287 30.965C102.653 30.4954 103.163 30.2606 103.818 30.2606C104.381 30.2606 104.88 30.4878 105.314 30.9422V30.3287H106.479V35.9527C106.479 36.7782 106.227 37.4184 105.725 37.8729C105.268 38.2819 104.682 38.4863 103.966 38.4863C103.197 38.4863 102.528 38.1644 101.956 37.5206L102.859 36.8048C103.208 37.1531 103.586 37.3274 103.989 37.3274C104.385 37.3274 104.705 37.2175 104.948 36.998C105.192 36.7782 105.314 36.4715 105.314 36.0776Z" fill="#293982"/>
<path d="M108.315 32.692H110.759C110.743 32.2679 110.623 31.9384 110.399 31.7036C110.174 31.4688 109.887 31.3514 109.537 31.3514C109.187 31.3514 108.897 31.4688 108.669 31.7036C108.441 31.9384 108.322 32.2679 108.315 32.692ZM111.924 33.6463H108.315C108.315 34.1008 108.442 34.4513 108.697 34.6973C108.953 34.9435 109.286 35.0666 109.697 35.0666C110.184 35.0666 110.606 34.8811 110.964 34.5099L111.809 35.2256C111.268 35.8468 110.572 36.1572 109.72 36.1572C109.004 36.1572 108.429 35.9641 107.996 35.5779C107.432 35.0855 107.15 34.3017 107.15 33.226C107.15 32.196 107.409 31.4234 107.927 30.9082C108.353 30.4765 108.89 30.2606 109.537 30.2606C110.199 30.2606 110.759 30.4803 111.215 30.9196C111.687 31.3817 111.924 31.9725 111.924 32.692V33.6463Z" fill="#293982"/>
<path d="M117.723 36H116.257L116.262 35.4253H117.723C118.192 35.4253 118.591 35.3268 118.921 35.1299C119.25 34.9329 119.501 34.6447 119.673 34.2651C119.848 33.8856 119.936 33.4237 119.936 32.8794V31.2896C119.936 30.8742 119.886 30.509 119.786 30.1938C119.689 29.8752 119.546 29.6102 119.356 29.3989C119.17 29.1841 118.942 29.0229 118.674 28.9155C118.405 28.8081 118.103 28.7544 117.766 28.7544H116.225V28.1797H117.766C118.181 28.1797 118.559 28.2477 118.899 28.3838C119.24 28.5199 119.531 28.7204 119.775 28.9854C120.022 29.2503 120.212 29.5762 120.344 29.9629C120.477 30.3496 120.543 30.7954 120.543 31.3003V32.8794C120.543 33.3843 120.477 33.8319 120.344 34.2222C120.212 34.6089 120.022 34.9347 119.775 35.1997C119.528 35.4611 119.231 35.6598 118.883 35.7959C118.54 35.932 118.153 36 117.723 36ZM116.542 28.1797V36H115.929V28.1797H116.542ZM127.401 35.4253V36H123.748V35.4253H127.401ZM123.915 28.1797V36H123.303V28.1797H123.915ZM126.944 31.6816V32.2563H123.748V31.6816H126.944ZM127.374 28.1797V28.7544H123.748V28.1797H127.374ZM133.555 34.0718C133.555 33.8605 133.526 33.6707 133.469 33.5024C133.412 33.3341 133.317 33.1838 133.184 33.0513C133.052 32.9152 132.871 32.7899 132.642 32.6753C132.416 32.5607 132.137 32.4461 131.804 32.3315C131.475 32.2205 131.177 32.0988 130.912 31.9663C130.651 31.8338 130.425 31.6816 130.236 31.5098C130.049 31.3379 129.906 31.1374 129.806 30.9082C129.709 30.679 129.661 30.4105 129.661 30.1025C129.661 29.7982 129.715 29.5225 129.822 29.2754C129.933 29.0247 130.087 28.8099 130.284 28.6309C130.481 28.4518 130.714 28.314 130.982 28.2173C131.251 28.1206 131.548 28.0723 131.874 28.0723C132.339 28.0723 132.74 28.1779 133.077 28.3892C133.417 28.5968 133.677 28.8779 133.856 29.2324C134.038 29.5833 134.13 29.9754 134.13 30.4087H133.523C133.523 30.0685 133.458 29.766 133.329 29.501C133.204 29.236 133.018 29.0283 132.771 28.8779C132.527 28.724 132.23 28.647 131.879 28.647C131.525 28.647 131.228 28.7132 130.988 28.8457C130.751 28.9746 130.574 29.1483 130.456 29.3667C130.338 29.5815 130.279 29.8197 130.279 30.0811C130.279 30.2673 130.307 30.4391 130.365 30.5967C130.425 30.7542 130.522 30.8993 130.655 31.0317C130.791 31.1642 130.968 31.2896 131.186 31.4077C131.408 31.5223 131.679 31.6315 131.997 31.7354C132.352 31.8464 132.663 31.9717 132.932 32.1113C133.204 32.251 133.431 32.4121 133.614 32.5947C133.8 32.7773 133.94 32.9886 134.033 33.2285C134.13 33.4684 134.178 33.7459 134.178 34.061C134.178 34.3797 134.123 34.6662 134.012 34.9204C133.901 35.1711 133.743 35.3859 133.539 35.5649C133.335 35.7404 133.095 35.8747 132.819 35.9678C132.543 36.0609 132.239 36.1074 131.906 36.1074C131.616 36.1074 131.326 36.0645 131.036 35.9785C130.746 35.889 130.481 35.7493 130.241 35.5596C130.001 35.3662 129.81 35.1209 129.666 34.8237C129.523 34.5265 129.451 34.172 129.451 33.7603H130.069C130.069 34.0861 130.123 34.3636 130.23 34.5928C130.338 34.8184 130.479 35.001 130.655 35.1406C130.834 35.2767 131.032 35.377 131.251 35.4414C131.469 35.5023 131.689 35.5327 131.911 35.5327C132.248 35.5327 132.54 35.4718 132.787 35.3501C133.034 35.2284 133.224 35.0583 133.356 34.8398C133.489 34.6178 133.555 34.3618 133.555 34.0718ZM137.4 28.1797V36H136.782V28.1797H137.4ZM145.219 32.2778V35.0923C145.144 35.1961 145.015 35.3286 144.832 35.4897C144.65 35.6509 144.402 35.7959 144.091 35.9248C143.783 36.0501 143.396 36.1128 142.931 36.1128C142.54 36.1128 142.186 36.0448 141.867 35.9087C141.549 35.7726 141.273 35.5721 141.04 35.3071C140.811 35.0422 140.634 34.7145 140.508 34.3242C140.383 33.9303 140.32 33.4756 140.32 32.96V31.1606C140.32 30.6522 140.376 30.2064 140.487 29.8232C140.601 29.4401 140.766 29.1196 140.981 28.8618C141.199 28.6004 141.464 28.4035 141.776 28.271C142.087 28.1385 142.444 28.0723 142.845 28.0723C143.332 28.0723 143.745 28.1636 144.086 28.3462C144.426 28.5252 144.691 28.7866 144.88 29.1304C145.074 29.4741 145.187 29.8913 145.219 30.3818H144.601C144.565 30.0202 144.483 29.7104 144.354 29.4526C144.225 29.1948 144.037 28.9961 143.79 28.8564C143.543 28.7168 143.228 28.647 142.845 28.647C142.526 28.647 142.247 28.7007 142.007 28.8081C141.771 28.9155 141.572 29.0749 141.411 29.2861C141.253 29.4974 141.135 29.7588 141.056 30.0703C140.977 30.3818 140.938 30.7417 140.938 31.1499V32.96C140.938 33.3825 140.983 33.7549 141.072 34.0771C141.165 34.3958 141.298 34.6644 141.47 34.8828C141.642 35.1012 141.849 35.266 142.093 35.377C142.34 35.4844 142.619 35.5381 142.931 35.5381C143.26 35.5381 143.538 35.4969 143.763 35.4146C143.989 35.3322 144.17 35.2391 144.306 35.1353C144.445 35.0314 144.546 34.9473 144.607 34.8828V32.8472H142.888V32.2778H145.219ZM153.011 28.1797V36H152.394L148.709 29.3345V36H148.091V28.1797H148.709L152.399 34.8452V28.1797H153.011ZM163.225 34.0718C163.225 33.8605 163.196 33.6707 163.139 33.5024C163.082 33.3341 162.987 33.1838 162.854 33.0513C162.722 32.9152 162.541 32.7899 162.312 32.6753C162.086 32.5607 161.807 32.4461 161.474 32.3315C161.144 32.2205 160.847 32.0988 160.582 31.9663C160.321 31.8338 160.095 31.6816 159.906 31.5098C159.719 31.3379 159.576 31.1374 159.476 30.9082C159.379 30.679 159.331 30.4105 159.331 30.1025C159.331 29.7982 159.385 29.5225 159.492 29.2754C159.603 29.0247 159.757 28.8099 159.954 28.6309C160.151 28.4518 160.384 28.314 160.652 28.2173C160.921 28.1206 161.218 28.0723 161.544 28.0723C162.009 28.0723 162.41 28.1779 162.747 28.3892C163.087 28.5968 163.347 28.8779 163.526 29.2324C163.708 29.5833 163.8 29.9754 163.8 30.4087H163.193C163.193 30.0685 163.128 29.766 162.999 29.501C162.874 29.236 162.688 29.0283 162.441 28.8779C162.197 28.724 161.9 28.647 161.549 28.647C161.195 28.647 160.897 28.7132 160.658 28.8457C160.421 28.9746 160.244 29.1483 160.126 29.3667C160.008 29.5815 159.949 29.8197 159.949 30.0811C159.949 30.2673 159.977 30.4391 160.034 30.5967C160.095 30.7542 160.192 30.8993 160.325 31.0317C160.461 31.1642 160.638 31.2896 160.856 31.4077C161.078 31.5223 161.349 31.6315 161.667 31.7354C162.022 31.8464 162.333 31.9717 162.602 32.1113C162.874 32.251 163.101 32.4121 163.284 32.5947C163.47 32.7773 163.61 32.9886 163.703 33.2285C163.8 33.4684 163.848 33.7459 163.848 34.061C163.848 34.3797 163.792 34.6662 163.681 34.9204C163.57 35.1711 163.413 35.3859 163.209 35.5649C163.005 35.7404 162.765 35.8747 162.489 35.9678C162.213 36.0609 161.909 36.1074 161.576 36.1074C161.286 36.1074 160.996 36.0645 160.706 35.9785C160.416 35.889 160.151 35.7493 159.911 35.5596C159.671 35.3662 159.479 35.1209 159.336 34.8237C159.193 34.5265 159.121 34.172 159.121 33.7603H159.739C159.739 34.0861 159.793 34.3636 159.9 34.5928C160.008 34.8184 160.149 35.001 160.325 35.1406C160.504 35.2767 160.702 35.377 160.921 35.4414C161.139 35.5023 161.359 35.5327 161.581 35.5327C161.918 35.5327 162.21 35.4718 162.457 35.3501C162.704 35.2284 162.894 35.0583 163.026 34.8398C163.159 34.6178 163.225 34.3618 163.225 34.0718ZM166.344 28.1797L168.283 32.4282L170.233 28.1797H170.942L168.59 33.0566V36H167.977V33.0566L165.625 28.1797H166.344ZM176.79 34.0718C176.79 33.8605 176.761 33.6707 176.704 33.5024C176.647 33.3341 176.552 33.1838 176.42 33.0513C176.287 32.9152 176.106 32.7899 175.877 32.6753C175.651 32.5607 175.372 32.4461 175.039 32.3315C174.71 32.2205 174.413 32.0988 174.148 31.9663C173.886 31.8338 173.661 31.6816 173.471 31.5098C173.285 31.3379 173.141 31.1374 173.041 30.9082C172.944 30.679 172.896 30.4105 172.896 30.1025C172.896 29.7982 172.95 29.5225 173.057 29.2754C173.168 29.0247 173.322 28.8099 173.519 28.6309C173.716 28.4518 173.949 28.314 174.217 28.2173C174.486 28.1206 174.783 28.0723 175.109 28.0723C175.574 28.0723 175.976 28.1779 176.312 28.3892C176.652 28.5968 176.912 28.8779 177.091 29.2324C177.274 29.5833 177.365 29.9754 177.365 30.4087H176.758C176.758 30.0685 176.693 29.766 176.565 29.501C176.439 29.236 176.253 29.0283 176.006 28.8779C175.762 28.724 175.465 28.647 175.114 28.647C174.76 28.647 174.463 28.7132 174.223 28.8457C173.986 28.9746 173.809 29.1483 173.691 29.3667C173.573 29.5815 173.514 29.8197 173.514 30.0811C173.514 30.2673 173.542 30.4391 173.6 30.5967C173.661 30.7542 173.757 30.8993 173.89 31.0317C174.026 31.1642 174.203 31.2896 174.421 31.4077C174.643 31.5223 174.914 31.6315 175.233 31.7354C175.587 31.8464 175.899 31.9717 176.167 32.1113C176.439 32.251 176.667 32.4121 176.849 32.5947C177.035 32.7773 177.175 32.9886 177.268 33.2285C177.365 33.4684 177.413 33.7459 177.413 34.061C177.413 34.3797 177.358 34.6662 177.247 34.9204C177.136 35.1711 176.978 35.3859 176.774 35.5649C176.57 35.7404 176.33 35.8747 176.054 35.9678C175.779 36.0609 175.474 36.1074 175.141 36.1074C174.851 36.1074 174.561 36.0645 174.271 35.9785C173.981 35.889 173.716 35.7493 173.476 35.5596C173.236 35.3662 173.045 35.1209 172.901 34.8237C172.758 34.5265 172.687 34.172 172.687 33.7603H173.304C173.304 34.0861 173.358 34.3636 173.465 34.5928C173.573 34.8184 173.714 35.001 173.89 35.1406C174.069 35.2767 174.268 35.377 174.486 35.4414C174.704 35.5023 174.925 35.5327 175.147 35.5327C175.483 35.5327 175.775 35.4718 176.022 35.3501C176.269 35.2284 176.459 35.0583 176.591 34.8398C176.724 34.6178 176.79 34.3618 176.79 34.0718ZM182.149 28.1797V36H181.542V28.1797H182.149ZM184.378 28.1797V28.7544H179.324V28.1797H184.378ZM190.844 35.4253V36H187.192V35.4253H190.844ZM187.358 28.1797V36H186.746V28.1797H187.358ZM190.388 31.6816V32.2563H187.192V31.6816H190.388ZM190.817 28.1797V28.7544H187.192V28.1797H190.817ZM193.512 28.1797H194.13L196.499 35.0547L198.878 28.1797H199.485L196.741 36H196.268L193.512 28.1797ZM193.325 28.1797H193.862L193.937 32.5947V36H193.325V28.1797ZM199.147 28.1797H199.689V36H199.077V32.5947L199.147 28.1797Z" fill="#3C6BBD"/>
</svg>
